<mxfile host="app.diagrams.net" modified="2023-12-10T18:17:11.672Z" agent="Mozilla/5.0 (Windows NT 10.0; Win64; x64) AppleWebKit/537.36 (KHTML, like Gecko) Chrome/120.0.0.0 Safari/537.36" etag="tf7mW7drNmIp60DOCEC2" version="22.1.7" type="device" pages="2">
  <diagram name="Page-1" id="QW_K3_ke7Yh8puFLptCF">
    <mxGraphModel dx="2085" dy="1784" grid="1" gridSize="10" guides="1" tooltips="1" connect="1" arrows="1" fold="1" page="1" pageScale="1" pageWidth="850" pageHeight="1100" math="0" shadow="0">
      <root>
        <mxCell id="0" />
        <mxCell id="1" parent="0" />
        <mxCell id="-sM91pgXSiwikyQXDWtR-33" value="" style="verticalLabelPosition=bottom;verticalAlign=top;html=1;shape=mxgraph.basic.rect;fillColor2=none;strokeWidth=1;size=20;indent=5;" parent="1" vertex="1">
          <mxGeometry x="-340" width="232.5" height="282.5" as="geometry" />
        </mxCell>
        <mxCell id="-sM91pgXSiwikyQXDWtR-24" style="edgeStyle=orthogonalEdgeStyle;rounded=0;orthogonalLoop=1;jettySize=auto;html=1;entryX=0;entryY=0.5;entryDx=0;entryDy=0;" parent="1" source="-sM91pgXSiwikyQXDWtR-21" target="yV3CMHdI5wGG6Up7VDGd-9" edge="1">
          <mxGeometry relative="1" as="geometry" />
        </mxCell>
        <mxCell id="-sM91pgXSiwikyQXDWtR-21" value="" style="verticalLabelPosition=bottom;verticalAlign=top;html=1;shape=mxgraph.basic.rect;fillColor2=none;strokeWidth=1;size=20;indent=5;" parent="1" vertex="1">
          <mxGeometry x="270" y="-2.5" width="232.5" height="280" as="geometry" />
        </mxCell>
        <mxCell id="-sM91pgXSiwikyQXDWtR-11" value="" style="verticalLabelPosition=bottom;verticalAlign=top;html=1;shape=mxgraph.basic.rect;fillColor2=none;strokeWidth=1;size=20;indent=5;" parent="1" vertex="1">
          <mxGeometry x="-36.25" y="-2.5" width="232.5" height="282.5" as="geometry" />
        </mxCell>
        <mxCell id="yV3CMHdI5wGG6Up7VDGd-12" style="edgeStyle=orthogonalEdgeStyle;rounded=0;orthogonalLoop=1;jettySize=auto;html=1;exitX=0.5;exitY=1;exitDx=0;exitDy=0;entryX=0.5;entryY=0;entryDx=0;entryDy=0;" parent="1" edge="1">
          <mxGeometry relative="1" as="geometry">
            <mxPoint x="710" y="50" as="targetPoint" />
          </mxGeometry>
        </mxCell>
        <mxCell id="yV3CMHdI5wGG6Up7VDGd-13" style="edgeStyle=orthogonalEdgeStyle;rounded=0;orthogonalLoop=1;jettySize=auto;html=1;exitX=0.5;exitY=1;exitDx=0;exitDy=0;entryX=0.5;entryY=0;entryDx=0;entryDy=0;" parent="1" edge="1">
          <mxGeometry relative="1" as="geometry">
            <mxPoint x="710" y="130" as="targetPoint" />
          </mxGeometry>
        </mxCell>
        <mxCell id="yV3CMHdI5wGG6Up7VDGd-14" style="edgeStyle=orthogonalEdgeStyle;rounded=0;orthogonalLoop=1;jettySize=auto;html=1;exitX=0.5;exitY=1;exitDx=0;exitDy=0;entryX=0.5;entryY=0;entryDx=0;entryDy=0;" parent="1" edge="1">
          <mxGeometry relative="1" as="geometry">
            <mxPoint x="760" y="239.99999999999977" as="targetPoint" />
          </mxGeometry>
        </mxCell>
        <mxCell id="yV3CMHdI5wGG6Up7VDGd-7" value="Deteksi Plat&lt;br&gt;Nomer" style="rounded=0;whiteSpace=wrap;html=1;flipH=1;flipV=0;" parent="1" vertex="1">
          <mxGeometry x="20" y="188.75" width="120" height="40" as="geometry" />
        </mxCell>
        <mxCell id="yV3CMHdI5wGG6Up7VDGd-8" value="Deteksi Karakter dengan OCR" style="rounded=0;whiteSpace=wrap;html=1;flipH=1;flipV=0;" parent="1" vertex="1">
          <mxGeometry x="326.25" y="157.5" width="120" height="40" as="geometry" />
        </mxCell>
        <mxCell id="yV3CMHdI5wGG6Up7VDGd-9" value="Output Citra" style="rounded=0;whiteSpace=wrap;html=1;flipH=1;flipV=0;" parent="1" vertex="1">
          <mxGeometry x="560" y="117.5" width="120" height="40" as="geometry" />
        </mxCell>
        <mxCell id="-sM91pgXSiwikyQXDWtR-7" style="edgeStyle=orthogonalEdgeStyle;rounded=0;orthogonalLoop=1;jettySize=auto;html=1;exitX=0.5;exitY=1;exitDx=0;exitDy=0;entryX=0.5;entryY=0;entryDx=0;entryDy=0;" parent="1" source="-sM91pgXSiwikyQXDWtR-4" target="-sM91pgXSiwikyQXDWtR-5" edge="1">
          <mxGeometry relative="1" as="geometry" />
        </mxCell>
        <mxCell id="-sM91pgXSiwikyQXDWtR-4" value="Training &lt;br&gt;Model YOLO" style="rounded=0;whiteSpace=wrap;html=1;flipH=1;flipV=0;" parent="1" vertex="1">
          <mxGeometry x="20" y="48.75" width="120" height="40" as="geometry" />
        </mxCell>
        <mxCell id="-sM91pgXSiwikyQXDWtR-18" style="edgeStyle=orthogonalEdgeStyle;rounded=0;orthogonalLoop=1;jettySize=auto;html=1;exitX=0.5;exitY=1;exitDx=0;exitDy=0;entryX=0.5;entryY=0;entryDx=0;entryDy=0;" parent="1" source="-sM91pgXSiwikyQXDWtR-5" target="yV3CMHdI5wGG6Up7VDGd-7" edge="1">
          <mxGeometry relative="1" as="geometry" />
        </mxCell>
        <mxCell id="-sM91pgXSiwikyQXDWtR-5" value="Evaluasi&lt;br&gt;Model YOLO" style="rounded=0;whiteSpace=wrap;html=1;flipH=1;flipV=0;" parent="1" vertex="1">
          <mxGeometry x="20" y="118.75" width="120" height="40" as="geometry" />
        </mxCell>
        <mxCell id="-sM91pgXSiwikyQXDWtR-12" value="Deteksi Objek Plat Nomer" style="text;html=1;align=center;verticalAlign=middle;resizable=0;points=[];autosize=1;strokeColor=none;fillColor=none;" parent="1" vertex="1">
          <mxGeometry x="-36.25" width="160" height="30" as="geometry" />
        </mxCell>
        <mxCell id="-sM91pgXSiwikyQXDWtR-20" style="edgeStyle=orthogonalEdgeStyle;rounded=0;orthogonalLoop=1;jettySize=auto;html=1;exitX=0.5;exitY=1;exitDx=0;exitDy=0;entryX=0.5;entryY=0;entryDx=0;entryDy=0;" parent="1" source="-sM91pgXSiwikyQXDWtR-19" target="yV3CMHdI5wGG6Up7VDGd-8" edge="1">
          <mxGeometry relative="1" as="geometry" />
        </mxCell>
        <mxCell id="-sM91pgXSiwikyQXDWtR-19" value="Crop Citra" style="rounded=0;whiteSpace=wrap;html=1;flipH=1;flipV=0;" parent="1" vertex="1">
          <mxGeometry x="326.25" y="77.5" width="120" height="40" as="geometry" />
        </mxCell>
        <mxCell id="-sM91pgXSiwikyQXDWtR-22" value="Deteksi Karakter" style="text;html=1;align=center;verticalAlign=middle;resizable=0;points=[];autosize=1;strokeColor=none;fillColor=none;" parent="1" vertex="1">
          <mxGeometry x="270" width="110" height="30" as="geometry" />
        </mxCell>
        <mxCell id="-sM91pgXSiwikyQXDWtR-23" style="edgeStyle=orthogonalEdgeStyle;rounded=0;orthogonalLoop=1;jettySize=auto;html=1;entryX=-0.008;entryY=0.501;entryDx=0;entryDy=0;entryPerimeter=0;" parent="1" source="-sM91pgXSiwikyQXDWtR-11" target="-sM91pgXSiwikyQXDWtR-21" edge="1">
          <mxGeometry relative="1" as="geometry" />
        </mxCell>
        <mxCell id="-sM91pgXSiwikyQXDWtR-27" value="Citra Plat Nomer" style="strokeWidth=2;html=1;shape=mxgraph.flowchart.multi-document;whiteSpace=wrap;align=center;" parent="1" vertex="1">
          <mxGeometry x="-574" y="98.75" width="148.57" height="80" as="geometry" />
        </mxCell>
        <mxCell id="-sM91pgXSiwikyQXDWtR-32" style="edgeStyle=orthogonalEdgeStyle;rounded=0;orthogonalLoop=1;jettySize=auto;html=1;exitX=0.5;exitY=1;exitDx=0;exitDy=0;entryX=0.5;entryY=0;entryDx=0;entryDy=0;" parent="1" source="-sM91pgXSiwikyQXDWtR-30" target="-sM91pgXSiwikyQXDWtR-31" edge="1">
          <mxGeometry relative="1" as="geometry" />
        </mxCell>
        <mxCell id="-sM91pgXSiwikyQXDWtR-30" value="Annotation" style="rounded=0;whiteSpace=wrap;html=1;flipH=1;flipV=0;" parent="1" vertex="1">
          <mxGeometry x="-283.75" y="83.13" width="120" height="40" as="geometry" />
        </mxCell>
        <mxCell id="-sM91pgXSiwikyQXDWtR-31" value="Split Data" style="rounded=0;whiteSpace=wrap;html=1;flipH=1;flipV=0;" parent="1" vertex="1">
          <mxGeometry x="-283.75" y="151.88" width="120" height="40" as="geometry" />
        </mxCell>
        <mxCell id="-sM91pgXSiwikyQXDWtR-34" style="edgeStyle=orthogonalEdgeStyle;rounded=0;orthogonalLoop=1;jettySize=auto;html=1;entryX=-0.011;entryY=0.511;entryDx=0;entryDy=0;entryPerimeter=0;" parent="1" source="-sM91pgXSiwikyQXDWtR-33" target="-sM91pgXSiwikyQXDWtR-11" edge="1">
          <mxGeometry relative="1" as="geometry" />
        </mxCell>
        <mxCell id="-sM91pgXSiwikyQXDWtR-35" style="edgeStyle=orthogonalEdgeStyle;rounded=0;orthogonalLoop=1;jettySize=auto;html=1;entryX=-0.011;entryY=0.493;entryDx=0;entryDy=0;entryPerimeter=0;" parent="1" source="-sM91pgXSiwikyQXDWtR-27" target="-sM91pgXSiwikyQXDWtR-33" edge="1">
          <mxGeometry relative="1" as="geometry" />
        </mxCell>
        <mxCell id="-sM91pgXSiwikyQXDWtR-36" value="Preprocessing Data" style="text;html=1;align=center;verticalAlign=middle;resizable=0;points=[];autosize=1;strokeColor=none;fillColor=none;" parent="1" vertex="1">
          <mxGeometry x="-340" y="4" width="130" height="30" as="geometry" />
        </mxCell>
      </root>
    </mxGraphModel>
  </diagram>
  <diagram name="Page 2" id="W0eLnJgSXmxtAzx9adHf">
    <mxGraphModel dx="2350" dy="1930" grid="1" gridSize="10" guides="1" tooltips="1" connect="1" arrows="1" fold="1" page="1" pageScale="1" pageWidth="850" pageHeight="1100" math="0" shadow="0">
      <root>
        <mxCell id="UYgDSmTb-WFwf-SIE5PA-0" />
        <mxCell id="UYgDSmTb-WFwf-SIE5PA-1" parent="UYgDSmTb-WFwf-SIE5PA-0" />
        <mxCell id="UYgDSmTb-WFwf-SIE5PA-2" value="" style="verticalLabelPosition=bottom;verticalAlign=top;html=1;shape=mxgraph.basic.rect;fillColor2=none;strokeWidth=1;size=20;indent=5;fillColor=#f6f1eb;" vertex="1" parent="UYgDSmTb-WFwf-SIE5PA-1">
          <mxGeometry x="-340" width="232.5" height="282.5" as="geometry" />
        </mxCell>
        <mxCell id="UYgDSmTb-WFwf-SIE5PA-3" style="edgeStyle=orthogonalEdgeStyle;rounded=0;orthogonalLoop=1;jettySize=auto;html=1;entryX=0;entryY=0.5;entryDx=0;entryDy=0;" edge="1" parent="UYgDSmTb-WFwf-SIE5PA-1" source="UYgDSmTb-WFwf-SIE5PA-4" target="UYgDSmTb-WFwf-SIE5PA-11">
          <mxGeometry relative="1" as="geometry" />
        </mxCell>
        <mxCell id="UYgDSmTb-WFwf-SIE5PA-4" value="" style="verticalLabelPosition=bottom;verticalAlign=top;html=1;shape=mxgraph.basic.rect;fillColor2=none;strokeWidth=1;size=20;indent=5;fillColor=#f6f1eb;" vertex="1" parent="UYgDSmTb-WFwf-SIE5PA-1">
          <mxGeometry x="270" y="-2.5" width="232.5" height="280" as="geometry" />
        </mxCell>
        <mxCell id="UYgDSmTb-WFwf-SIE5PA-5" value="" style="verticalLabelPosition=bottom;verticalAlign=top;html=1;shape=mxgraph.basic.rect;fillColor2=none;strokeWidth=1;size=20;indent=5;fillColor=#f6f1eb;" vertex="1" parent="UYgDSmTb-WFwf-SIE5PA-1">
          <mxGeometry x="-36.25" y="-2.5" width="232.5" height="282.5" as="geometry" />
        </mxCell>
        <mxCell id="UYgDSmTb-WFwf-SIE5PA-6" style="edgeStyle=orthogonalEdgeStyle;rounded=0;orthogonalLoop=1;jettySize=auto;html=1;exitX=0.5;exitY=1;exitDx=0;exitDy=0;entryX=0.5;entryY=0;entryDx=0;entryDy=0;" edge="1" parent="UYgDSmTb-WFwf-SIE5PA-1">
          <mxGeometry relative="1" as="geometry">
            <mxPoint x="710" y="50" as="targetPoint" />
          </mxGeometry>
        </mxCell>
        <mxCell id="UYgDSmTb-WFwf-SIE5PA-7" style="edgeStyle=orthogonalEdgeStyle;rounded=0;orthogonalLoop=1;jettySize=auto;html=1;exitX=0.5;exitY=1;exitDx=0;exitDy=0;entryX=0.5;entryY=0;entryDx=0;entryDy=0;" edge="1" parent="UYgDSmTb-WFwf-SIE5PA-1">
          <mxGeometry relative="1" as="geometry">
            <mxPoint x="710" y="130" as="targetPoint" />
          </mxGeometry>
        </mxCell>
        <mxCell id="UYgDSmTb-WFwf-SIE5PA-8" style="edgeStyle=orthogonalEdgeStyle;rounded=0;orthogonalLoop=1;jettySize=auto;html=1;exitX=0.5;exitY=1;exitDx=0;exitDy=0;entryX=0.5;entryY=0;entryDx=0;entryDy=0;" edge="1" parent="UYgDSmTb-WFwf-SIE5PA-1">
          <mxGeometry relative="1" as="geometry">
            <mxPoint x="760" y="239.99999999999977" as="targetPoint" />
          </mxGeometry>
        </mxCell>
        <mxCell id="UYgDSmTb-WFwf-SIE5PA-9" value="Deteksi Plat&lt;br&gt;Nomer" style="rounded=0;whiteSpace=wrap;html=1;flipH=1;flipV=0;fillColor=#f6f1eb;" vertex="1" parent="UYgDSmTb-WFwf-SIE5PA-1">
          <mxGeometry x="20" y="188.75" width="120" height="40" as="geometry" />
        </mxCell>
        <mxCell id="UYgDSmTb-WFwf-SIE5PA-10" value="Deteksi Karakter dengan OCR" style="rounded=0;whiteSpace=wrap;html=1;flipH=1;flipV=0;fillColor=#f6f1eb;" vertex="1" parent="UYgDSmTb-WFwf-SIE5PA-1">
          <mxGeometry x="326.25" y="157.5" width="120" height="40" as="geometry" />
        </mxCell>
        <mxCell id="UYgDSmTb-WFwf-SIE5PA-11" value="Output Citra" style="rounded=0;whiteSpace=wrap;html=1;flipH=1;flipV=0;fillColor=#f6f1eb;" vertex="1" parent="UYgDSmTb-WFwf-SIE5PA-1">
          <mxGeometry x="560" y="117.5" width="120" height="40" as="geometry" />
        </mxCell>
        <mxCell id="UYgDSmTb-WFwf-SIE5PA-12" style="edgeStyle=orthogonalEdgeStyle;rounded=0;orthogonalLoop=1;jettySize=auto;html=1;exitX=0.5;exitY=1;exitDx=0;exitDy=0;entryX=0.5;entryY=0;entryDx=0;entryDy=0;" edge="1" parent="UYgDSmTb-WFwf-SIE5PA-1" source="UYgDSmTb-WFwf-SIE5PA-13" target="UYgDSmTb-WFwf-SIE5PA-15">
          <mxGeometry relative="1" as="geometry" />
        </mxCell>
        <mxCell id="UYgDSmTb-WFwf-SIE5PA-13" value="Training &lt;br&gt;Model YOLO" style="rounded=0;whiteSpace=wrap;html=1;flipH=1;flipV=0;fillColor=#f6f1eb;" vertex="1" parent="UYgDSmTb-WFwf-SIE5PA-1">
          <mxGeometry x="20" y="48.75" width="120" height="40" as="geometry" />
        </mxCell>
        <mxCell id="UYgDSmTb-WFwf-SIE5PA-14" style="edgeStyle=orthogonalEdgeStyle;rounded=0;orthogonalLoop=1;jettySize=auto;html=1;exitX=0.5;exitY=1;exitDx=0;exitDy=0;entryX=0.5;entryY=0;entryDx=0;entryDy=0;" edge="1" parent="UYgDSmTb-WFwf-SIE5PA-1" source="UYgDSmTb-WFwf-SIE5PA-15" target="UYgDSmTb-WFwf-SIE5PA-9">
          <mxGeometry relative="1" as="geometry" />
        </mxCell>
        <mxCell id="UYgDSmTb-WFwf-SIE5PA-15" value="Evaluasi&lt;br&gt;Model YOLO" style="rounded=0;whiteSpace=wrap;html=1;flipH=1;flipV=0;fillColor=#f6f1eb;" vertex="1" parent="UYgDSmTb-WFwf-SIE5PA-1">
          <mxGeometry x="20" y="118.75" width="120" height="40" as="geometry" />
        </mxCell>
        <mxCell id="UYgDSmTb-WFwf-SIE5PA-16" value="Deteksi Objek Plat Nomer" style="text;html=1;align=center;verticalAlign=middle;resizable=0;points=[];autosize=1;strokeColor=none;fillColor=none;" vertex="1" parent="UYgDSmTb-WFwf-SIE5PA-1">
          <mxGeometry x="-36.25" width="160" height="30" as="geometry" />
        </mxCell>
        <mxCell id="UYgDSmTb-WFwf-SIE5PA-17" style="edgeStyle=orthogonalEdgeStyle;rounded=0;orthogonalLoop=1;jettySize=auto;html=1;exitX=0.5;exitY=1;exitDx=0;exitDy=0;entryX=0.5;entryY=0;entryDx=0;entryDy=0;" edge="1" parent="UYgDSmTb-WFwf-SIE5PA-1" source="UYgDSmTb-WFwf-SIE5PA-18" target="UYgDSmTb-WFwf-SIE5PA-10">
          <mxGeometry relative="1" as="geometry" />
        </mxCell>
        <mxCell id="UYgDSmTb-WFwf-SIE5PA-18" value="Crop Citra" style="rounded=0;whiteSpace=wrap;html=1;flipH=1;flipV=0;fillColor=#f6f1eb;" vertex="1" parent="UYgDSmTb-WFwf-SIE5PA-1">
          <mxGeometry x="326.25" y="77.5" width="120" height="40" as="geometry" />
        </mxCell>
        <mxCell id="UYgDSmTb-WFwf-SIE5PA-19" value="Deteksi Karakter" style="text;html=1;align=center;verticalAlign=middle;resizable=0;points=[];autosize=1;strokeColor=none;fillColor=none;" vertex="1" parent="UYgDSmTb-WFwf-SIE5PA-1">
          <mxGeometry x="270" width="110" height="30" as="geometry" />
        </mxCell>
        <mxCell id="UYgDSmTb-WFwf-SIE5PA-20" style="edgeStyle=orthogonalEdgeStyle;rounded=0;orthogonalLoop=1;jettySize=auto;html=1;entryX=-0.008;entryY=0.501;entryDx=0;entryDy=0;entryPerimeter=0;" edge="1" parent="UYgDSmTb-WFwf-SIE5PA-1" source="UYgDSmTb-WFwf-SIE5PA-5" target="UYgDSmTb-WFwf-SIE5PA-4">
          <mxGeometry relative="1" as="geometry" />
        </mxCell>
        <mxCell id="UYgDSmTb-WFwf-SIE5PA-21" value="Citra Plat Nomer" style="strokeWidth=2;html=1;shape=mxgraph.flowchart.multi-document;whiteSpace=wrap;align=center;fillColor=#f6f1eb;" vertex="1" parent="UYgDSmTb-WFwf-SIE5PA-1">
          <mxGeometry x="-574" y="98.75" width="148.57" height="80" as="geometry" />
        </mxCell>
        <mxCell id="UYgDSmTb-WFwf-SIE5PA-22" style="edgeStyle=orthogonalEdgeStyle;rounded=0;orthogonalLoop=1;jettySize=auto;html=1;exitX=0.5;exitY=1;exitDx=0;exitDy=0;entryX=0.5;entryY=0;entryDx=0;entryDy=0;" edge="1" parent="UYgDSmTb-WFwf-SIE5PA-1" source="UYgDSmTb-WFwf-SIE5PA-23" target="UYgDSmTb-WFwf-SIE5PA-24">
          <mxGeometry relative="1" as="geometry" />
        </mxCell>
        <mxCell id="UYgDSmTb-WFwf-SIE5PA-23" value="Annotation" style="rounded=0;whiteSpace=wrap;html=1;flipH=1;flipV=0;fillColor=#f6f1eb;" vertex="1" parent="UYgDSmTb-WFwf-SIE5PA-1">
          <mxGeometry x="-283.75" y="83.13" width="120" height="40" as="geometry" />
        </mxCell>
        <mxCell id="UYgDSmTb-WFwf-SIE5PA-24" value="Split Data" style="rounded=0;whiteSpace=wrap;html=1;flipH=1;flipV=0;fillColor=#f6f1eb;" vertex="1" parent="UYgDSmTb-WFwf-SIE5PA-1">
          <mxGeometry x="-283.75" y="151.88" width="120" height="40" as="geometry" />
        </mxCell>
        <mxCell id="UYgDSmTb-WFwf-SIE5PA-25" style="edgeStyle=orthogonalEdgeStyle;rounded=0;orthogonalLoop=1;jettySize=auto;html=1;entryX=-0.011;entryY=0.511;entryDx=0;entryDy=0;entryPerimeter=0;" edge="1" parent="UYgDSmTb-WFwf-SIE5PA-1" source="UYgDSmTb-WFwf-SIE5PA-2" target="UYgDSmTb-WFwf-SIE5PA-5">
          <mxGeometry relative="1" as="geometry" />
        </mxCell>
        <mxCell id="UYgDSmTb-WFwf-SIE5PA-26" style="edgeStyle=orthogonalEdgeStyle;rounded=0;orthogonalLoop=1;jettySize=auto;html=1;entryX=-0.011;entryY=0.493;entryDx=0;entryDy=0;entryPerimeter=0;" edge="1" parent="UYgDSmTb-WFwf-SIE5PA-1" source="UYgDSmTb-WFwf-SIE5PA-21" target="UYgDSmTb-WFwf-SIE5PA-2">
          <mxGeometry relative="1" as="geometry" />
        </mxCell>
        <mxCell id="UYgDSmTb-WFwf-SIE5PA-27" value="Preprocessing Data" style="text;html=1;align=center;verticalAlign=middle;resizable=0;points=[];autosize=1;strokeColor=none;fillColor=none;" vertex="1" parent="UYgDSmTb-WFwf-SIE5PA-1">
          <mxGeometry x="-340" y="4" width="130" height="30" as="geometry" />
        </mxCell>
      </root>
    </mxGraphModel>
  </diagram>
</mxfile>
